<svg width="100" height="86" viewBox="0 0 100 86" fill="none" xmlns="http://www.w3.org/2000/svg">
<path d="M99.7041 38.9315L81.9306 2.45881C81.4398 1.45138 80.4173 0.812515 79.297 0.812515H20.7031C19.5826 0.812515 18.5604 1.45158 18.0695 2.45881L0.296065 38.9315C-0.119561 39.7847 -0.0963189 40.7862 0.358369 41.619C0.813058 42.4519 1.64314 43.013 2.58552 43.1243C5.08084 43.4194 7.5203 43.4632 9.96093 43.2726V82.258C9.96093 83.876 11.2726 85.1877 12.8906 85.1877C16.7473 85.1877 84.5829 85.1877 87.1095 85.1877C88.7275 85.1877 90.0392 83.876 90.0392 82.258V43.2737C92.4833 43.4646 94.9523 43.4153 97.4146 43.1241C98.357 43.0128 99.1871 42.4517 99.6418 41.6188C100.096 40.786 100.12 39.7845 99.7041 38.9315ZM59.7093 6.6719L68.1704 30.6911C59.7557 39.8561 40.1522 39.7554 31.8297 30.6911L40.2909 6.6719H59.7093ZM7.50155 37.5206L22.5344 6.6719H34.0785L25.907 29.8688C21.7399 35.1489 14.2555 37.422 7.50155 37.5206ZM35.3516 79.3283H15.8203V70.5392H35.3516V79.3283ZM58.7891 79.3283H41.211V55.8907H58.7891V79.3283ZM84.1798 79.3283H64.6485V70.5392H84.1798V79.3283ZM84.1798 64.6798H64.6485V52.9611C64.6485 51.3431 63.3368 50.0314 61.7188 50.0314H38.2813C36.6633 50.0314 35.3516 51.3431 35.3516 52.9611V64.6798H15.8203V42.3399C20.4637 41.2019 25.0244 39.0327 28.5164 35.6858C39.2584 45.9741 60.7585 45.9579 71.4837 35.6858C74.9452 39.0034 79.4864 41.1895 84.1798 42.3399V64.6798ZM74.0929 29.8684L65.9214 6.6719H77.4655L92.4986 37.5208C85.7689 37.4216 78.2759 35.1686 74.0929 29.8684Z" fill="white"/>
</svg>
